HIERARCHY
ROOT Hips
{
	OFFSET 0.0000 0.0000 0.0000
	CHANNELS 6 Xposition Yposition Zposition Zrotation Xrotation Yrotation
	JOINT Spine1
	{
		OFFSET -0.0137 5.0038 -0.0537
		CHANNELS 3 Zrotation Xrotation Yrotation
		JOINT Spine2
		{
			OFFSET -0.0000 7.1253 -0.0298
			CHANNELS 3 Zrotation Xrotation Yrotation
			JOINT Chest
			{
				OFFSET -0.0000 7.5501 -0.8160
				CHANNELS 3 Zrotation Xrotation Yrotation
				JOINT Neck1
				{
					OFFSET -0.1817 26.3113 -0.5533
					CHANNELS 3 Zrotation Xrotation Yrotation
					JOINT Neck2
					{
						OFFSET -0.0000 7.7094 2.3026
						CHANNELS 3 Zrotation Xrotation Yrotation
						JOINT Head
						{
							OFFSET -0.0000 6.1289 1.9537
							CHANNELS 3 Zrotation Xrotation Yrotation
							JOINT Jaw
							{
								OFFSET 0.0026 0.4756 3.0949
								CHANNELS 3 Zrotation Xrotation Yrotation
								End Site
								{
									OFFSET 0.0 1.0 0.0
								}
							}
							JOINT LeftEye
							{
								OFFSET 3.2064 5.3802 7.5869
								CHANNELS 3 Zrotation Xrotation Yrotation
								End Site
								{
									OFFSET 0.0 1.0 0.0
								}
							}
							JOINT RightEye
							{
								OFFSET -3.2224 5.3619 7.5582
								CHANNELS 3 Zrotation Xrotation Yrotation
								End Site
								{
									OFFSET 0.0 1.0 0.0
								}
							}
						}
					}
				}
				JOINT LeftShoulder
				{
					OFFSET 1.6217 23.2372 5.1134
					CHANNELS 3 Zrotation Xrotation Yrotation
					JOINT LeftArm
					{
						OFFSET 14.9198 0.0000 -5.5023
						CHANNELS 3 Zrotation Xrotation Yrotation
						JOINT LeftForeArm
						{
							OFFSET 28.7393 0.0000 -0.0026
							CHANNELS 3 Zrotation Xrotation Yrotation
							JOINT LeftHand
							{
								OFFSET 27.0940 -0.0000 0.0026
								CHANNELS 3 Zrotation Xrotation Yrotation
								JOINT LeftHandThumbEnd
								{
									OFFSET 12.2686 -3.2202 4.8331
									CHANNELS 3 Zrotation Xrotation Yrotation
									End Site
									{
										OFFSET 0.0 1.0 0.0
									}
								}
								JOINT LeftHandMiddleEnd
								{
									OFFSET 19.0120 -0.3129 -0.0340
									CHANNELS 3 Zrotation Xrotation Yrotation
									End Site
									{
										OFFSET 0.0 1.0 0.0
									}
								}
							}
						}
					}
				}
				JOINT RightShoulder
				{
					OFFSET -1.3801 23.1803 5.2142
					CHANNELS 3 Zrotation Xrotation Yrotation
					JOINT RightArm
					{
						OFFSET -15.0372 0.0000 -5.5456
						CHANNELS 3 Zrotation Xrotation Yrotation
						JOINT RightForeArm
						{
							OFFSET -28.7366 0.0000 -0.0026
							CHANNELS 3 Zrotation Xrotation Yrotation
							JOINT RightHand
							{
								OFFSET -27.1336 -0.0000 0.0026
								CHANNELS 3 Zrotation Xrotation Yrotation
								JOINT RightHandThumbEnd
								{
									OFFSET -12.2642 -3.2115 4.8040
									CHANNELS 3 Zrotation Xrotation Yrotation
									End Site
									{
										OFFSET 0.0 1.0 0.0
									}
								}
								JOINT RightHandMiddleEnd
								{
									OFFSET -19.0006 -0.3066 -0.0316
									CHANNELS 3 Zrotation Xrotation Yrotation
									End Site
									{
										OFFSET 0.0 1.0 0.0
									}
								}
							}
						}
					}
				}
			}
		}
	}
	JOINT LeftLeg
	{
		OFFSET 10.0432 -8.4345 2.5957
		CHANNELS 3 Zrotation Xrotation Yrotation
		JOINT LeftShin
		{
			OFFSET -0.0000 -43.2218 -0.8029
			CHANNELS 3 Zrotation Xrotation Yrotation
			JOINT LeftFoot
			{
				OFFSET 0.0000 -42.1551 -3.4815
				CHANNELS 3 Zrotation Xrotation Yrotation
				JOINT LeftToeBase
				{
					OFFSET 0.0000 -5.0595 13.2315
					CHANNELS 3 Zrotation Xrotation Yrotation
					End Site
					{
						OFFSET 0.0 1.0 0.0
					}
				}
			}
		}
	}
	JOINT RightLeg
	{
		OFFSET -10.0473 -8.2953 2.6203
		CHANNELS 3 Zrotation Xrotation Yrotation
		JOINT RightShin
		{
			OFFSET 0.0000 -43.3622 -0.8056
			CHANNELS 3 Zrotation Xrotation Yrotation
			JOINT RightFoot
			{
				OFFSET 0.0000 -42.1174 -3.4784
				CHANNELS 3 Zrotation Xrotation Yrotation
				JOINT RightToeBase
				{
					OFFSET -0.0000 -5.0796 13.2842
					CHANNELS 3 Zrotation Xrotation Yrotation
					End Site
					{
						OFFSET 0.0 1.0 0.0
					}
				}
			}
		}
	}
}
MOTION
Frames: 9
Frame Time: 0.033333
-4.5973 88.4207 -1.0952 4.5462 -5.6094 0.0743 1.2016 2.9462 0.1493 0.1382 -3.8592 0.1407 -0.9125 10.6304 -1.3574 -19.3996 7.3062 9.4277 6.0761 -3.9694 22.3684 3.0690 -9.3873 26.1396 -0.0536 -0.1165 -0.3491 0.6328 -10.8562 -4.2026 -0.7512 -10.8389 3.5750 4.2027 10.0967 -6.5082 -65.6168 -13.3827 19.1463 -0.6315 0.0217 -92.2669 27.9066 16.7868 16.2706 -15.9191 10.9943 15.9505 -59.2951 1.7881 2.5821 1.7914 20.7143 4.3662 61.0848 42.4112 26.8003 0.7074 0.1203 115.3146 43.0682 0.2054 -5.7220 16.1409 7.4569 -15.8407 49.9186 -3.5658 -4.8686 8.8623 -34.5047 21.6313 -0.6685 37.4925 -1.0377 -13.3398 2.5951 -17.7983 1.6402 0.6033 -1.9680 -18.7332 -16.7148 -35.5557 0.6135 54.6535 0.8746 21.0687 -29.7847 -17.0765 -1.4725 0.1731 1.1882
-4.5226 88.3548 -1.1453 4.4695 -5.4957 0.3545 1.1660 3.0445 0.0956 0.1596 -3.8240 0.2553 -0.9546 10.5672 -1.3637 -19.5192 7.1638 9.5081 6.1864 -4.0507 22.6966 2.9080 -9.1595 26.3697 -0.0606 -0.1088 -0.3205 0.6272 -10.8138 -4.1666 -0.7596 -10.7960 3.5995 4.7682 10.1460 -6.4146 -65.8783 -13.7951 19.0755 -0.8217 0.0197 -91.7203 27.5974 16.3225 15.6892 -16.0071 10.9092 15.7725 -59.4274 1.8406 2.5625 1.6803 20.9202 4.5182 62.1387 42.5639 27.4811 0.5474 0.2243 115.3026 43.1940 -0.8349 -5.8334 15.8561 7.5111 -15.8064 49.9046 -3.5804 -4.8140 8.7747 -34.9886 21.7534 -0.6901 37.9959 -1.0342 -13.3897 2.3520 -18.2131 1.6508 0.5038 -1.9947 -18.6183 -16.8591 -35.7587 0.5445 54.8566 0.7916 21.1980 -29.7353 -17.1288 -1.4779 0.2003 1.1489
-4.4653 88.1775 -1.2343 4.3710 -5.3215 0.6186 1.1350 3.1792 0.0918 0.1547 -3.7788 0.3386 -0.9737 10.5179 -1.3501 -19.6489 7.0319 9.5924 6.2934 -4.1338 22.9758 2.7136 -8.9950 26.6407 -0.0611 -0.1019 -0.3162 0.6259 -10.8006 -4.1526 -0.7595 -10.7838 3.5925 5.1725 10.1354 -6.4304 -66.1016 -14.2091 19.2953 -0.9475 0.0210 -91.4040 27.4525 16.3405 15.3073 -16.0418 10.8548 15.6697 -59.5730 1.8819 2.5690 1.6575 21.0857 4.7232 63.3586 42.8329 28.3635 0.2109 0.1988 115.3771 43.2984 -1.3087 -6.4258 15.7390 7.5566 -15.8122 49.9410 -3.5797 -4.7840 8.6821 -35.7061 21.8045 -0.6892 38.7498 -1.0120 -13.3151 2.0675 -18.5055 1.6602 0.4564 -1.9914 -18.5108 -17.2642 -36.0029 0.5135 55.3880 0.7375 21.3319 -29.8855 -17.0607 -1.4798 0.2636 1.1599
-4.3806 87.9329 -1.3202 4.2767 -5.1534 0.7473 1.1123 3.3485 0.0881 0.1369 -3.7385 0.4230 -1.0121 10.5360 -1.3017 -19.7365 6.9088 9.6801 6.3436 -4.1806 23.1970 2.5624 -9.1035 26.8311 -0.0583 -0.0947 -0.3225 0.6261 -10.7949 -4.1518 -0.7542 -10.7796 3.5761 5.2597 10.1483 -6.4814 -66.3617 -14.7801 19.8076 -0.9921 0.0716 -91.2505 27.4618 16.9016 14.9981 -16.1017 10.7808 15.5801 -59.6405 1.8926 2.5485 1.7251 21.2118 4.9513 64.2964 42.9397 29.0839 -0.0582 0.1138 115.3364 43.2722 -1.2299 -6.9908 15.6501 7.6353 -15.8169 49.9751 -3.4956 -4.7784 8.6230 -36.4536 21.8025 -0.6708 39.6573 -0.9801 -13.1899 1.7314 -18.5971 1.6655 0.4389 -1.9881 -18.4495 -17.7982 -36.2018 0.5024 56.0461 0.7003 21.4350 -30.1403 -16.9399 -1.4784 0.3231 1.1787
-4.2693 87.6690 -1.4187 4.2107 -5.0219 0.7592 1.0882 3.5318 0.1076 0.1122 -3.7029 0.4440 -1.1080 10.6419 -1.2234 -19.7611 6.7958 9.7225 6.3700 -4.2037 23.3908 2.4309 -9.4497 26.9313 -0.0576 -0.0857 -0.3121 0.6248 -10.8018 -4.1381 -0.7515 -10.7859 3.5819 5.0731 10.2578 -6.5793 -66.7165 -15.5456 20.7717 -1.1289 0.0879 -91.2086 27.5627 17.6522 14.6978 -16.1474 10.7509 15.4982 -59.6325 1.9126 2.4630 1.8795 21.3157 5.1750 65.0101 42.9290 29.7136 -0.2926 0.0298 115.1861 43.0742 -0.7882 -7.3756 15.6047 7.7568 -15.8622 50.0593 -3.3890 -4.7680 8.5712 -37.2069 21.8238 -0.6596 40.7461 -0.9615 -13.0019 1.3161 -18.5781 1.6665 0.4122 -1.9953 -18.4775 -18.4059 -36.3263 0.5149 56.8284 0.7105 21.5213 -30.4340 -16.8019 -1.4753 0.3660 1.1917
-4.1365 87.3654 -1.4614 4.1600 -4.9671 0.6459 1.0502 3.7265 0.1327 0.0922 -3.6566 0.4338 -1.2564 10.8181 -1.1917 -19.7125 6.7005 9.7074 6.3831 -4.2121 23.5491 2.3634 -9.9283 27.0035 -0.0594 -0.0781 -0.3000 0.6247 -10.7894 -4.1202 -0.7549 -10.7717 3.5898 4.6978 10.4147 -6.6643 -67.0827 -16.2491 21.8392 -1.1456 0.1857 -91.2893 27.7236 18.3482 14.5620 -16.1532 10.7305 15.4377 -59.5270 1.9129 2.3870 2.0791 21.4557 5.3433 65.3617 42.8113 30.1581 -0.4726 -0.1143 114.9814 42.8173 -0.2354 -7.6900 15.6200 7.8627 -15.8709 50.1847 -3.3078 -4.7704 8.5573 -37.9156 21.9171 -0.6495 41.9753 -0.9440 -12.7701 0.8495 -18.5241 1.6601 0.4210 -2.0068 -18.6143 -19.0033 -36.3623 0.5428 57.6899 0.7418 21.5784 -30.6632 -16.5792 -1.4724 0.3823 1.1962
-3.9866 87.0371 -1.4838 4.1228 -4.9912 0.4624 1.0011 3.9173 0.1527 0.0674 -3.5887 0.4093 -1.4397 11.0113 -1.2318 -19.6530 6.7023 9.6497 6.3769 -4.2299 23.6424 2.3471 -10.5153 27.0816 -0.0627 -0.0711 -0.2915 0.6247 -10.7826 -4.1087 -0.7615 -10.7637 3.5953 4.1712 10.5875 -6.7659 -67.3452 -16.8054 22.8008 -1.0588 0.3255 -91.3211 28.0277 19.0597 14.6374 -16.1745 10.6989 15.3612 -59.4515 1.8986 2.3245 2.2672 21.5957 5.4396 65.5690 42.6736 30.4947 -0.5970 -0.2400 114.7105 42.5684 0.2519 -7.9447 15.6623 7.9590 -15.8683 50.3192 -3.2565 -4.7674 8.5977 -38.5724 22.0582 -0.6524 43.2833 -0.9328 -12.5578 0.3071 -18.4236 1.6552 0.4648 -2.0132 -18.8523 -19.5709 -36.3197 0.5916 58.6339 0.8004 21.6294 -30.9345 -16.3232 -1.4679 0.3916 1.1919
-3.8191 86.6960 -1.4971 4.0776 -5.0490 0.2359 0.9391 4.0897 0.1742 0.0293 -3.5166 0.3613 -1.6525 11.2102 -1.3384 -19.5197 6.7544 9.5451 6.3561 -4.2499 23.6861 2.3590 -11.1161 27.0950 -0.0668 -0.0660 -0.2786 0.6243 -10.7833 -4.0948 -0.7691 -10.7604 3.6095 3.4956 10.7875 -6.9195 -67.5061 -17.2939 23.7382 -0.9734 0.4735 -91.2455 28.5093 19.9492 14.9586 -16.2163 10.6504 15.2931 -59.4035 1.8904 2.2781 2.4593 21.7508 5.4676 65.6162 42.4964 30.6668 -0.6571 -0.3281 114.3718 42.4046 0.6520 -8.1241 15.7020 8.0191 -15.8651 50.4196 -3.2283 -4.7709 8.6779 -39.2011 22.2375 -0.6517 44.6307 -0.9200 -12.3273 -0.2573 -18.2822 1.6488 0.4913 -2.0156 -19.1411 -20.0750 -36.1928 0.6353 59.5782 0.8583 21.6879 -31.1816 -16.0510 -1.4635 0.3731 1.1833
-3.6524 86.3636 -1.4750 4.0130 -5.1482 0.0067 0.8611 4.2558 0.1904 -0.0101 -3.4562 0.2750 -1.9054 11.4146 -1.4859 -19.2894 6.8632 9.3823 6.3521 -4.2679 23.6477 2.3774 -11.7332 27.0247 -0.0707 -0.0553 -0.2712 0.6249 -10.7798 -4.0876 -0.7771 -10.7524 3.6213 2.8084 11.0375 -7.1482 -67.6077 -17.7930 24.6562 -0.9488 0.6018 -91.0117 29.1545 21.1436 15.5479 -16.2389 10.5764 15.2435 -59.2986 1.8650 2.2441 2.6219 21.9050 5.4369 65.6641 42.3144 30.8501 -0.7172 -0.3942 113.9668 42.1276 1.0739 -8.1724 15.6744 8.0388 -15.8719 50.4610 -3.2398 -4.7813 8.8202 -39.7401 22.4040 -0.6738 45.9036 -0.9298 -12.1335 -0.8241 -18.1594 1.6428 0.5126 -2.0237 -19.4399 -20.4777 -36.0097 0.6760 60.4614 0.9098 21.7713 -31.4129 -15.8408 -1.4591 0.3341 1.1750
